<?xml version="1.0" standalone="no"?>
<!DOCTYPE svg PUBLIC "-//W3C//DTD SVG 20010904//EN"
 "http://www.w3.org/TR/2001/REC-SVG-20010904/DTD/svg10.dtd">
<svg version="1.0" xmlns="http://www.w3.org/2000/svg"
 width="221.000000pt" height="221.000000pt" viewBox="0 0 221.000000 221.000000"
 preserveAspectRatio="xMidYMid meet">
<metadata>
Created by potrace 1.14, written by Peter Selinger 2001-2017
</metadata>
<g transform="translate(0.000000,221.000000) scale(0.100000,-0.100000)"
fill="#000000" stroke="none">
<path d="M816 2050 c-153 -88 -282 -160 -287 -160 -10 0 -11 -5 -13 -165 l-1
-120 -155 -2 c-85 -1 -158 -2 -163 -2 -4 -1 -6 -245 -5 -543 l3 -543 195 -110
c107 -61 311 -177 453 -258 l258 -147 297 169 c163 93 320 182 348 198 28 15
98 55 157 88 l107 60 0 543 0 542 -22 1 c-13 0 -85 1 -160 1 -99 0 -138 3
-139 11 -1 7 -2 67 -3 134 -1 95 -4 125 -16 136 -12 11 -235 141 -405 237
-115 64 -162 90 -166 90 -2 0 -129 -72 -283 -160z m294 140 c0 -5 -4 -10 -10
-10 -5 0 -10 5 -10 10 0 6 5 10 10 10 6 0 10 -4 10 -10z m-2 -62 c3 -46 -8
-47 -13 -1 -2 24 1 43 8 43 1 0 3 -19 5 -42z m2 -58 c0 -5 -4 -10 -10 -10 -5
0 -10 5 -10 10 0 6 5 10 10 10 6 0 10 -4 10 -10z m-2 -62 c3 -46 -8 -47 -13
-1 -2 24 1 43 8 43 1 0 3 -19 5 -42z m2 -58 c0 -5 -4 -10 -10 -10 -5 0 -10 5
-10 10 0 6 5 10 10 10 6 0 10 -4 10 -10z m-4 -40 c0 -12 -4 -16 -9 -11 -5 5
-6 14 -3 20 10 15 12 14 12 -9z m4 -40 c0 -5 -4 -10 -10 -10 -5 0 -10 5 -10
10 0 6 5 10 10 10 6 0 10 -4 10 -10z m-2 -62 c3 -46 -8 -47 -13 -1 -2 24 1 43
8 43 1 0 3 -19 5 -42z m2 -58 c0 -5 -4 -10 -10 -10 -5 0 -10 5 -10 10 0 6 5
10 10 10 6 0 10 -4 10 -10z m-2 -62 c3 -46 -8 -47 -13 -1 -2 24 1 43 8 43 1 0
3 -19 5 -42z m2 -58 c0 -5 -4 -10 -10 -10 -5 0 -10 5 -10 10 0 6 5 10 10 10 6
0 10 -4 10 -10z m-4 -40 c0 -12 -4 -16 -9 -11 -5 5 -6 14 -3 20 10 15 12 14
12 -9z m4 -40 c0 -5 -4 -10 -10 -10 -5 0 -10 5 -10 10 0 6 5 10 10 10 6 0 10
-4 10 -10z m-2 -62 c3 -46 -8 -47 -13 -1 -2 24 1 43 8 43 1 0 3 -19 5 -42z m2
-58 c0 -5 -4 -10 -10 -10 -5 0 -10 5 -10 10 0 6 5 10 10 10 6 0 10 -4 10 -10z
m-2 -62 c3 -46 -8 -47 -13 -1 -2 24 1 43 8 43 1 0 3 -19 5 -42z m2 -58 c0 -5
-4 -10 -10 -10 -5 0 -10 5 -10 10 0 6 5 10 10 10 6 0 10 -4 10 -10z m-4 -40
c0 -12 -4 -16 -9 -11 -5 5 -6 14 -3 20 10 15 12 14 12 -9z m4 -40 c0 -5 -4
-10 -10 -10 -5 0 -10 5 -10 10 0 6 5 10 10 10 6 0 10 -4 10 -10z m-2 -62 c3
-46 -8 -47 -13 -1 -2 24 1 43 8 43 1 0 3 -19 5 -42z m2 -58 c0 -5 -4 -10 -10
-10 -5 0 -10 5 -10 10 0 6 5 10 10 10 6 0 10 -4 10 -10z m-3 -39 c1 -11 -5
-22 -13 -25 -10 -4 -13 -2 -7 7 4 6 8 15 9 20 5 24 9 23 11 -2z"/>
</g>
</svg>
