<svg width="24" height="24" viewBox="0 0 24 24" fill="none" xmlns="http://www.w3.org/2000/svg">
<path d="M8.32561 19.7578L7.851 21.1816H6.35156C5.96325 21.1816 5.64844 21.4965 5.64844 21.8848C5.64844 22.2731 5.96325 22.5879 6.35156 22.5879H17.6484C18.0367 22.5879 18.3516 22.2731 18.3516 21.8848C18.3516 21.4965 18.0367 21.1816 17.6484 21.1816H16.149L15.6744 19.7578H8.32561Z" fill="#47BAFB"/>
<path d="M0 16.8076C0 17.659 0.692625 18.3516 1.54392 18.3516H22.456C23.3074 18.3516 24 17.659 24 16.8076V15.5273H0V16.8076Z" fill="#47BAFB"/>
<path d="M24 2.95608C24 2.10473 23.3074 1.41211 22.456 1.41211H1.54392C0.692625 1.41211 0 2.10469 0 2.95608V14.1211H24V2.95608ZM8.73497 9.91505C9.00984 10.1894 9.01031 10.6345 8.736 10.9094C8.59866 11.047 8.41847 11.1158 8.23828 11.1158C8.05856 11.1158 7.87889 11.0474 7.74159 10.9104L5.85488 9.02756C5.72269 8.8957 5.64844 8.71659 5.64844 8.52989C5.64844 8.34319 5.72269 8.16408 5.85488 8.03222L7.74159 6.14939C8.01647 5.87508 8.46164 5.87545 8.73595 6.15037C9.01027 6.42525 9.0098 6.87042 8.73492 7.14473L7.34695 8.52989L8.73497 9.91505ZM13.5703 6.9615L11.6875 10.7272C11.5643 10.9735 11.316 11.116 11.058 11.116C10.9524 11.116 10.8451 11.0921 10.7442 11.0416C10.3968 10.868 10.2561 10.4456 10.4297 10.0983L12.3126 6.33262C12.4862 5.98533 12.9086 5.84442 13.2559 6.01819C13.6032 6.19181 13.744 6.6142 13.5703 6.9615ZM18.1451 9.02756L16.2584 10.9104C16.1212 11.0474 15.9414 11.1158 15.7617 11.1158C15.5815 11.1158 15.4013 11.047 15.264 10.9094C14.9897 10.6345 14.9902 10.1894 15.265 9.91505L16.653 8.52989L15.265 7.14473C14.9902 6.87042 14.9897 6.42525 15.264 6.15037C15.5384 5.8755 15.9835 5.87508 16.2584 6.14939L18.1451 8.03222C18.2773 8.16408 18.3515 8.34319 18.3515 8.52989C18.3515 8.71659 18.2773 8.89566 18.1451 9.02756Z" fill="#47BAFB"/>
</svg>
