<svg width="24" height="24" viewBox="0 0 24 24" fill="none" xmlns="http://www.w3.org/2000/svg">
<path fill-rule="evenodd" clip-rule="evenodd" d="M8.53162 2.93676C10.7165 1.66726 13.402 1.68945 15.5664 2.99488C17.7095 4.3269 19.012 6.70417 18.9998 9.26143C18.95 11.8019 17.5533 14.19 15.8075 16.0361C14.7998 17.1064 13.6726 18.0528 12.4488 18.856C12.3228 18.9289 12.1848 18.9777 12.0415 19C11.9036 18.9941 11.7693 18.9534 11.6508 18.8814C9.78243 17.6746 8.14334 16.134 6.81233 14.334C5.69859 12.8314 5.06584 11.016 5 9.13441C4.99856 6.57224 6.34677 4.20626 8.53162 2.93676ZM9.79416 10.1948C10.1617 11.1008 11.0292 11.6918 11.9916 11.6918C12.6221 11.6964 13.2282 11.4438 13.6748 10.9905C14.1214 10.5371 14.3715 9.92063 14.3692 9.27837C14.3726 8.29803 13.7955 7.4123 12.9073 7.03476C12.0191 6.65722 10.995 6.86234 10.3133 7.55434C9.63159 8.24634 9.42664 9.28871 9.79416 10.1948Z" fill="#47BAFB"/>
<path opacity="0.4" d="M12 22C14.7614 22 17 21.5523 17 21C17 20.4477 14.7614 20 12 20C9.23858 20 7 20.4477 7 21C7 21.5523 9.23858 22 12 22Z" fill="#47BAFB"/>
</svg>
